<svg id="Layer_1" data-name="Layer 1" xmlns="http://www.w3.org/2000/svg" viewBox="0 0 1026 387"><defs><style>.cls-1{fill:#0089d6;}</style></defs><g id="layer1"><g id="layer1-1"><path id="path21" class="cls-1" d="M195.09,318.23c46.33-8.18,84.59-15,85-15.05l.8-.17-43.74-52c-24.05-28.61-43.74-52.14-43.74-52.27S238.61,74.1,238.86,73.65c.08-.14,30.82,52.92,74.5,128.63l74.93,129.87.57,1-139,0-139,0Zm533-12.58c-21.15-1.36-33.46-13.41-36.72-36-.87-6-.87-6.15-1-45.1l-.09-37.69h18.73l.08,36.46c.06,32.86.1,36.71.42,39,1.27,9.38,3.81,15.69,8.13,20.22a23.34,23.34,0,0,0,13.11,6.87,50,50,0,0,0,12.58,0,27.79,27.79,0,0,0,14.25-7.73,37.73,37.73,0,0,0,9.61-18.42l.55-2.47.06-36.77.06-36.77h19.12v115.6H768.14v-9.17c0-6.23-.07-9.15-.21-9.1a7.14,7.14,0,0,0-1.08,1.65A38.35,38.35,0,0,1,752.2,301c-7.13,3.93-14.29,5.33-24.07,4.7Zm214.76-.09a49.68,49.68,0,0,1-21.76-7.11c-13.55-8.38-21.56-22.19-23.91-41.2a99.64,99.64,0,0,1-.23-21c1.51-12.49,6.42-24.75,13.41-33.5a68.1,68.1,0,0,1,8.1-8.1,50.52,50.52,0,0,1,20.67-9.87,67.29,67.29,0,0,1,16.77-1,44.11,44.11,0,0,1,29.71,15.27c7.41,8.81,11.48,21.12,12,36.28.08,2.38.1,6.54,0,9.26l-.1,4.93-41,.05-41,.06v1.83a45.35,45.35,0,0,0,3.69,17.3c2,4.65,5.5,9.73,8.34,12.19a36.68,36.68,0,0,0,20.78,8.79,81.65,81.65,0,0,0,13.57-.52,57.57,57.57,0,0,0,25.6-10.56c.85-.64,1.66-1.24,1.81-1.33s.26,1.54.25,8.54v8.7l-1.94,1.2a68.05,68.05,0,0,1-27.46,9.52,160,160,0,0,1-17.37.26Zm35.67-73.39c0-9.32-3.93-19.68-9.49-25a26.11,26.11,0,0,0-14.47-7,42.86,42.86,0,0,0-11.23.31A29.37,29.37,0,0,0,928,208.6a41.64,41.64,0,0,0-10.14,16.24,52.39,52.39,0,0,0-2,8l-.13,1h62.76ZM422.63,302.65c0-.14,14-36.7,30.92-81.24l30.84-81h19.82l.82,2.11c2.51,6.45,61.74,160.21,61.74,160.29s-4.74.1-10.54.1H545.69l-8.54-22.73-8.53-22.73H459.87l-.29.77c-.17.43-3.82,10.65-8.11,22.73l-7.8,21.95H433.1c-8.36,0-10.54-.05-10.47-.26Zm99.71-62.54s-5.74-15.61-12.76-34.61c-13.14-35.54-13.87-37.68-14.91-43.39-.49-2.67-.73-2.75-1-.3a55.82,55.82,0,0,1-1.8,7.81c-.34,1.08-6.25,17.31-13.14,36.08s-12.52,34.2-12.52,34.3,12.63.17,28.08.17S522.34,240.14,522.34,240.11ZM573.15,300v-3l34.24-47.07,34.24-47.08-31-.1-31-.1-.06-7.87-.05-7.87H669.2v5.32L635,239.55c-18.84,26-34.25,47.37-34.25,47.42s15.23.1,33.84.1h33.83v15.84H573.15Zm251.28,2.82c-.07-.07-.14-26.18-.14-58V186.9H843v11.93c0,6.56.08,11.93.18,11.93a10.47,10.47,0,0,0,1-2.39,41.26,41.26,0,0,1,10.46-16.1,27.09,27.09,0,0,1,14.78-7.35,30.76,30.76,0,0,1,6.17-.23,27.53,27.53,0,0,1,8.59,1.2l.77.26v19.43l-2.21-1.11A23.56,23.56,0,0,0,870.37,202a22.39,22.39,0,0,0-7.41,1.45,23.43,23.43,0,0,0-11.79,9.63,56,56,0,0,0-7.83,22.51c-.15,1.38-.24,12.59-.28,34.69l0,32.65h-9.22C828.72,302.91,824.51,302.85,824.43,302.77Zm-796.15-.4c0-.08,20.6-35.85,45.79-79.5l45.8-79.37,53.37-44.79c29.35-24.63,53.45-44.82,53.55-44.85a9.79,9.79,0,0,1-.86,2.15c-.57,1.23-26.65,57.17-58,124.31L111.06,302.4l-41.39.05C46.9,302.48,28.28,302.44,28.28,302.37Z"/></g></g></svg>