<svg viewBox="0 0 80 80" xmlns="http://www.w3.org/2000/svg"><g transform="scale(.625)"><g stroke-linecap="round" stroke-width="4" stroke="#000048" fill="none" stroke-linejoin="round"><path d="M80.6 122h-52V83.11v0c.01-.04.01-.07 0-.1 -.23-.28-1.64-2-4.5-5.4l-3.6-5.23c-4.8-8.48-5.87-14.17-5.87-24.19v.08C14.6 42.19 17 35 19 30.9c4.48-9.14 12.84-17.4 22.28-21.23 10.57-4.29 20.51-4.91 31.45-1.44 10.51 3.32 20.77 11.69 25.65 21.54 4.76 9.58 5.31 14.82 5.21 26.33 0 5.08 9.79 17.38 9.79 21.51 0 2 0 4.49-3.55 5.25 -2.07.44-4.17.13-6.23.13v15.43 0c.14 5.16-3.92 9.47-9.09 9.62 -.13 0-.26 0-.39 0H80.59Z"/><path d="M59.1 23.87l0 5.21"/><path d="M78.01 31.08l-3.69 3.68"/><path d="M86.6 51.37l-5.21 0"/><path d="M77.26 70.82l-3.69-3.68"/><path d="M39.87 31.08l3.68 3.68"/><path d="M30.53 50.31l5.2 0"/><path d="M39.12 70.82l3.68-3.68"/><path d="M59.11 36.19h-.4 -.001c7.89-.23 14.49 5.98 14.75 13.88 0 8.9-8.28 12.13-8.28 20.41h-13.18c0-8.28-8.33-11.48-8.33-20.41v0c.25-7.9 6.84-14.11 14.74-13.88h-.41"/><path d="M54.63 77.87s-.18 4.61 3.85 4.61 4-4.61 4-4.61"/><path d="M64.49 76.68l-11.85 0"/></g></g></svg>